<?xml version="1.0" encoding="UTF-8" standalone="no"?>
<!-- Created with Inkscape (http://www.inkscape.org/) -->

<svg
   width="52.916668mm"
   height="52.916668mm"
   viewBox="0 0 52.916668 52.916668"
   version="1.1"
   id="svg1"
   xml:space="preserve"
   sodipodi:docname="album-fallback-inkscape.svg"
   inkscape:version="1.4.4 (dcaf3e7d9e, 2026-05-05)"
   inkscape:export-batch-name=""
   inkscape:export-batch-path="/work/musicapp/resources"
   xmlns:inkscape="http://www.inkscape.org/namespaces/inkscape"
   xmlns:sodipodi="http://sodipodi.sourceforge.net/DTD/sodipodi-0.dtd"
   xmlns:xlink="http://www.w3.org/1999/xlink"
   xmlns="http://www.w3.org/2000/svg"
   xmlns:svg="http://www.w3.org/2000/svg"><sodipodi:namedview
     id="namedview1"
     pagecolor="#ffffff"
     bordercolor="#000000"
     borderopacity="0.25"
     inkscape:showpageshadow="2"
     inkscape:pageopacity="0.0"
     inkscape:pagecheckerboard="0"
     inkscape:deskcolor="#d1d1d1"
     inkscape:document-units="px"
     inkscape:zoom="1.4142136"
     inkscape:cx="139.65359"
     inkscape:cy="-183.49421"
     inkscape:window-width="1409"
     inkscape:window-height="1392"
     inkscape:window-x="0"
     inkscape:window-y="0"
     inkscape:window-maximized="1"
     inkscape:current-layer="layer1"><inkscape:page
       x="0"
       y="0"
       width="52.916668"
       height="52.916668"
       id="page1"
       margin="0"
       bleed="0"
       inkscape:label="album-fallback-light" /><inkscape:page
       x="56.990452"
       y="6.6666666e-07"
       width="52.916668"
       height="52.916668"
       id="page2"
       inkscape:label="album-fallback-dark"
       margin="0"
       bleed="0" /></sodipodi:namedview><defs
     id="defs1"><linearGradient
       id="linearGradient33"
       inkscape:collect="always"><stop
         style="stop-color:#eeeeee;stop-opacity:1;"
         offset="0"
         id="stop33" /><stop
         style="stop-color:#f1f1f1;stop-opacity:1;"
         offset="1"
         id="stop34" /></linearGradient><linearGradient
       id="linearGradient32"
       x1="221"
       y1="188"
       x2="355"
       y2="322"
       gradientUnits="userSpaceOnUse"><stop
         offset="0"
         stop-color="#c4c4c4"
         id="stop31"
         style="stop-color:#4d4d4d;stop-opacity:1;" /><stop
         offset="1"
         stop-color="#ababab"
         id="stop32"
         style="stop-color:#000000;stop-opacity:1;" /></linearGradient><linearGradient
       id="linearGradient30"
       x1="170.24932"
       y1="179.40748"
       x2="308.70509"
       y2="317.86324"
       gradientTransform="scale(0.97504063,1.0255983)"
       gradientUnits="userSpaceOnUse"><stop
         offset="0"
         stop-color="#c5c5c5"
         id="stop29"
         style="stop-color:#000000;stop-opacity:1;" /><stop
         offset="1"
         stop-color="#a8a8a8"
         id="stop30"
         style="stop-color:#4c4c4c;stop-opacity:1;" /></linearGradient><linearGradient
       id="bg"
       x1="0"
       y1="0"
       x2="512"
       y2="512"
       gradientUnits="userSpaceOnUse"><stop
         offset="0"
         stop-color="#171717"
         id="stop1" /><stop
         offset="1"
         stop-color="#202020"
         id="stop2"
         style="stop-color:#181818;stop-opacity:1;" /></linearGradient><linearGradient
       id="frameFill"
       x1="31.906336"
       y1="41.237891"
       x2="470.84714"
       y2="480.17869"
       gradientTransform="scale(1.0183918,0.98194038)"
       gradientUnits="userSpaceOnUse"><stop
         offset="0"
         stop-color="#2a2a2a"
         id="stop3"
         style="stop-color:#252525;stop-opacity:1;" /><stop
         offset="1"
         stop-color="#252525"
         id="stop4"
         style="stop-color:#292929;stop-opacity:1;" /></linearGradient><linearGradient
       id="sleeveFill"
       x1="170.24932"
       y1="179.40748"
       x2="308.70509"
       y2="317.86324"
       gradientTransform="scale(0.97504063,1.0255983)"
       gradientUnits="userSpaceOnUse"><stop
         offset="0"
         stop-color="#d6d6d6"
         id="stop5" /><stop
         offset="1"
         stop-color="#bdbdbd"
         id="stop6" /></linearGradient><linearGradient
       id="recordFill"
       x1="221"
       y1="188"
       x2="355"
       y2="322"
       gradientUnits="userSpaceOnUse"><stop
         offset="0"
         stop-color="#d0d0d0"
         id="stop7" /><stop
         offset="1"
         stop-color="#b9b9b9"
         id="stop8" /></linearGradient><clipPath
       id="recordClip"><rect
         x="301"
         y="176"
         width="74"
         height="160"
         id="rect8" /></clipPath><linearGradient
       id="bg-3"
       x1="0"
       y1="0"
       x2="512"
       y2="512"
       gradientUnits="userSpaceOnUse"><stop
         offset="0"
         stop-color="#ffffff"
         id="stop1-6" /><stop
         offset="1"
         stop-color="#f5f5f5"
         id="stop2-7" /></linearGradient><linearGradient
       id="frameFill-5"
       x1="32.358792"
       y1="41.710037"
       x2="470.37535"
       y2="479.7266"
       gradientTransform="scale(1.0184309,0.98190263)"
       gradientUnits="userSpaceOnUse"><stop
         offset="0"
         stop-color="#f3f3f3"
         id="stop3-3"
         style="stop-color:#eeeeee;stop-opacity:1;" /><stop
         offset="1"
         stop-color="#eeeeee"
         id="stop4-5"
         style="stop-color:#ececec;stop-opacity:1;" /></linearGradient><linearGradient
       id="sleeveFill-6"
       x1="170.24932"
       y1="179.40748"
       x2="308.70509"
       y2="317.86324"
       gradientTransform="scale(0.97504063,1.0255983)"
       gradientUnits="userSpaceOnUse"><stop
         offset="0"
         stop-color="#c5c5c5"
         id="stop5-2"
         style="stop-color:#ffffff;stop-opacity:1;" /><stop
         offset="1"
         stop-color="#a8a8a8"
         id="stop6-9"
         style="stop-color:#c4c4c4;stop-opacity:1;" /></linearGradient><linearGradient
       id="recordFill-1"
       x1="221"
       y1="188"
       x2="355"
       y2="322"
       gradientUnits="userSpaceOnUse"><stop
         offset="0"
         stop-color="#c4c4c4"
         id="stop7-2"
         style="stop-color:#c4c4c4;stop-opacity:1;" /><stop
         offset="1"
         stop-color="#ababab"
         id="stop8-7"
         style="stop-color:#efefef;stop-opacity:1;" /></linearGradient><clipPath
       id="recordClip-0"><rect
         x="301"
         y="176"
         width="74"
         height="160"
         id="rect8-9" /></clipPath><linearGradient
       inkscape:collect="always"
       xlink:href="#linearGradient32"
       id="linearGradient28"
       gradientUnits="userSpaceOnUse"
       x1="221"
       y1="188"
       x2="355"
       y2="322" /><linearGradient
       inkscape:collect="always"
       xlink:href="#linearGradient30"
       id="linearGradient29"
       gradientUnits="userSpaceOnUse"
       gradientTransform="scale(0.97504063,1.0255983)"
       x1="170.24932"
       y1="179.40748"
       x2="308.70509"
       y2="317.86324" /><linearGradient
       inkscape:collect="always"
       xlink:href="#linearGradient33"
       id="linearGradient34"
       x1="98.626266"
       y1="98.626328"
       x2="413.37354"
       y2="413.3736"
       gradientUnits="userSpaceOnUse" /></defs><g
     inkscape:label="Layer 1"
     inkscape:groupmode="layer"
     id="layer1"><g
       id="g3"
       transform="matrix(0.10335287,0,0,0.10335287,56.990452,6.6666666e-7)"
       style="stroke-width:2.56"
       inkscape:label="dark"><rect
         width="512"
         height="512"
         fill="url(#bg)"
         id="rect9"
         x="0"
         y="0"
         style="fill:#181818;stroke-width:2.56;fill-opacity:1"
         inkscape:label="bg" /><rect
         x="36"
         y="44"
         width="440"
         height="424"
         rx="11"
         fill="url(#frameFill)"
         stroke="#626262"
         stroke-width="5.12"
         id="rect10"
         style="display:inline;fill:url(#frameFill);stroke:#343434;stroke-opacity:0"
         inkscape:label="panel" /><g
         aria-hidden="true"
         id="g18-0"
         style="display:inline;stroke-width:2.56"
         inkscape:label="vinyl"><!-- Record, mostly hidden behind the sleeve. --><g
           clip-path="url(#recordClip-0)"
           id="g17-6"
           style="display:inline;stroke-width:2.56"
           inkscape:label="vinyl-disc"><circle
             cx="288"
             cy="255"
             r="67"
             fill="url(#recordFill)"
             id="circle10-2"
             style="display:inline;fill:url(#linearGradient28);stroke-width:2.56"
             inkscape:label="vinyl-disc-fill" /><circle
             cx="288"
             cy="255"
             r="24"
             fill="#f4f4f4"
             id="circle11-6"
             style="display:inline;stroke-width:2.56;fill:#000000;fill-opacity:1"
             inkscape:label="vinyl-disc-sticker" /><g
             fill="none"
             stroke="#d7d7d7"
             stroke-width="1.92"
             opacity="0.72"
             id="g8"
             style="display:inline"
             inkscape:label="vinyl-disc-grooves"><path
               style="baseline-shift:baseline;display:inline;overflow:visible;opacity:1;vector-effect:none;fill:#4b4b4b;fill-opacity:1;stroke:none;enable-background:accumulate;stop-color:#000000;stop-opacity:1"
               d="m 288,219.03906 c -19.84879,0 -35.96094,16.11215 -35.96094,35.96094 0,19.84879 16.11215,35.96094 35.96094,35.96094 19.84879,0 35.96094,-16.11215 35.96094,-35.96094 0,-19.84879 -16.11215,-35.96094 -35.96094,-35.96094 z m 0,1.92188 c 18.81114,0 34.03906,15.22792 34.03906,34.03906 0,18.81114 -15.22792,34.03906 -34.03906,34.03906 -18.81114,0 -34.03906,-15.22792 -34.03906,-34.03906 0,-18.81114 15.22792,-34.03906 34.03906,-34.03906 z"
               id="circle4" /><path
               style="baseline-shift:baseline;display:inline;overflow:visible;opacity:1;vector-effect:none;fill:#4b4b4b;fill-opacity:1;stroke:none;enable-background:accumulate;stop-color:#000000;stop-opacity:1"
               d="m 288,213.03906 c -23.1625,0 -41.96094,18.79844 -41.96094,41.96094 0,23.1625 18.79844,41.96094 41.96094,41.96094 23.1625,0 41.96094,-18.79844 41.96094,-41.96094 0,-23.1625 -18.79844,-41.96094 -41.96094,-41.96094 z m 0,1.92188 c 22.12485,0 40.03906,17.91421 40.03906,40.03906 0,22.12485 -17.91421,40.03906 -40.03906,40.03906 -22.12485,0 -40.03906,-17.91421 -40.03906,-40.03906 0,-22.12485 17.91421,-40.03906 40.03906,-40.03906 z"
               id="circle5" /><path
               style="baseline-shift:baseline;display:inline;overflow:visible;opacity:1;vector-effect:none;fill:#4b4b4b;fill-opacity:1;stroke:none;enable-background:accumulate;stop-color:#000000;stop-opacity:1"
               d="m 288,207.03906 c -26.47621,0 -47.96094,21.48473 -47.96094,47.96094 0,26.47621 21.48473,47.96094 47.96094,47.96094 26.47621,0 47.96094,-21.48473 47.96094,-47.96094 0,-26.47621 -21.48473,-47.96094 -47.96094,-47.96094 z m 0,1.92188 c 25.43856,0 46.03906,20.6005 46.03906,46.03906 0,25.43856 -20.6005,46.03906 -46.03906,46.03906 -25.43856,0 -46.03906,-20.6005 -46.03906,-46.03906 0,-25.43856 20.6005,-46.03906 46.03906,-46.03906 z"
               id="circle6" /><path
               style="baseline-shift:baseline;display:inline;overflow:visible;opacity:1;vector-effect:none;fill:#4b4b4b;fill-opacity:1;stroke:none;enable-background:accumulate;stop-color:#000000;stop-opacity:1"
               d="m 288,201.03906 c -29.78991,0 -53.96094,24.17103 -53.96094,53.96094 0,29.78991 24.17103,53.96094 53.96094,53.96094 29.78991,0 53.96094,-24.17103 53.96094,-53.96094 0,-29.78991 -24.17103,-53.96094 -53.96094,-53.96094 z m 0,1.92188 c 28.75227,0 52.03906,23.28679 52.03906,52.03906 0,28.75227 -23.28679,52.03906 -52.03906,52.03906 -28.75227,0 -52.03906,-23.28679 -52.03906,-52.03906 0,-28.75227 23.28679,-52.03906 52.03906,-52.03906 z"
               id="circle7" /><path
               style="baseline-shift:baseline;display:inline;overflow:visible;opacity:1;vector-effect:none;fill:#4b4b4b;fill-opacity:1;stroke:none;enable-background:accumulate;stop-color:#000000;stop-opacity:1"
               d="m 288,195.03906 c -33.10362,0 -59.96094,26.85732 -59.96094,59.96094 0,33.10362 26.85732,59.96094 59.96094,59.96094 33.10362,0 59.96094,-26.85732 59.96094,-59.96094 0,-33.10362 -26.85732,-59.96094 -59.96094,-59.96094 z m 0,1.92188 c 32.06598,0 58.03906,25.97308 58.03906,58.03906 0,32.06598 -25.97308,58.03906 -58.03906,58.03906 -32.06598,0 -58.03906,-25.97308 -58.03906,-58.03906 0,-32.06598 25.97308,-58.03906 58.03906,-58.03906 z"
               id="circle8" /></g></g><!-- Front sleeve. --><rect
           x="166"
           y="184"
           width="135"
           height="142"
           rx="7"
           fill="url(#sleeveFill)"
           id="rect17-2"
           style="opacity:1;fill:url(#linearGradient29);stroke-width:2.56"
           inkscape:label="sleeve" /><!-- Sleeve cutout. --><g
           id="g9"
           inkscape:label="sleeve sticker"><circle
             cx="234"
             cy="255"
             r="29"
             fill="#f4f4f4"
             id="circle17-3"
             style="stroke-width:2.56;fill:#000000;fill-opacity:1"
             inkscape:label="sleeve sticker 1" /><circle
             cx="234"
             cy="255"
             r="10"
             fill="#b2b2b2"
             id="circle18-7"
             style="fill:#4b4b4b;fill-opacity:1;stroke-width:2.56"
             inkscape:label="sleeve sticker 2" /></g></g></g><g
       id="g4"
       transform="scale(0.10335287)"
       style="stroke-width:2.56"
       inkscape:label="light"><rect
         width="512"
         height="512"
         fill="url(#bg)"
         id="rect9-3"
         style="fill:#f5f5f5;stroke-width:2.56;fill-opacity:1"
         x="0"
         y="0"
         inkscape:label="bg" /><rect
         x="36"
         y="44"
         width="440"
         height="424"
         rx="11"
         fill="url(#frameFill)"
         stroke="#cfcfcf"
         stroke-width="5.12"
         id="rect10-6"
         style="display:inline;fill:url(#linearGradient34);stroke:#e6e6e6;stroke-opacity:0;fill-opacity:1"
         inkscape:label="panel" /><g
         aria-hidden="true"
         id="g26"
         style="display:inline;stroke-width:2.56"
         inkscape:label="vinyl"><!-- Record, mostly hidden behind the sleeve. --><g
           clip-path="url(#recordClip-0)"
           id="g24"
           style="display:inline;stroke-width:2.56"
           inkscape:label="vinyl-disc"><circle
             cx="288"
             cy="255"
             r="67"
             fill="url(#recordFill)"
             id="circle9"
             style="display:inline;fill:url(#recordFill-1);stroke-width:2.56"
             inkscape:label="vinyl-disc-fill" /><circle
             cx="288"
             cy="255"
             r="24"
             fill="#f4f4f4"
             id="circle19"
             style="display:inline;stroke-width:2.56"
             inkscape:label="vinyl-disc-sticker" /><g
             fill="none"
             stroke="#d7d7d7"
             stroke-width="1.92"
             opacity="0.72"
             id="g23"
             style="display:inline"
             inkscape:label="vinyl-disc-grooves"><path
               style="baseline-shift:baseline;display:inline;overflow:visible;opacity:1;vector-effect:none;fill:#ffffff;fill-opacity:1;stroke:none;enable-background:accumulate;stop-color:#000000;stop-opacity:1"
               d="m 288,219.03906 c -19.84879,0 -35.96094,16.11215 -35.96094,35.96094 0,19.84879 16.11215,35.96094 35.96094,35.96094 19.84879,0 35.96094,-16.11215 35.96094,-35.96094 0,-19.84879 -16.11215,-35.96094 -35.96094,-35.96094 z m 0,1.92188 c 18.81114,0 34.03906,15.22792 34.03906,34.03906 0,18.81114 -15.22792,34.03906 -34.03906,34.03906 -18.81114,0 -34.03906,-15.22792 -34.03906,-34.03906 0,-18.81114 15.22792,-34.03906 34.03906,-34.03906 z"
               id="path19" /><path
               style="baseline-shift:baseline;display:inline;overflow:visible;opacity:1;vector-effect:none;fill:#ffffff;fill-opacity:1;stroke:none;enable-background:accumulate;stop-color:#000000;stop-opacity:1"
               d="m 288,213.03906 c -23.1625,0 -41.96094,18.79844 -41.96094,41.96094 0,23.1625 18.79844,41.96094 41.96094,41.96094 23.1625,0 41.96094,-18.79844 41.96094,-41.96094 0,-23.1625 -18.79844,-41.96094 -41.96094,-41.96094 z m 0,1.92188 c 22.12485,0 40.03906,17.91421 40.03906,40.03906 0,22.12485 -17.91421,40.03906 -40.03906,40.03906 -22.12485,0 -40.03906,-17.91421 -40.03906,-40.03906 0,-22.12485 17.91421,-40.03906 40.03906,-40.03906 z"
               id="path20" /><path
               style="baseline-shift:baseline;display:inline;overflow:visible;opacity:1;vector-effect:none;fill:#ffffff;fill-opacity:1;stroke:none;enable-background:accumulate;stop-color:#000000;stop-opacity:1"
               d="m 288,207.03906 c -26.47621,0 -47.96094,21.48473 -47.96094,47.96094 0,26.47621 21.48473,47.96094 47.96094,47.96094 26.47621,0 47.96094,-21.48473 47.96094,-47.96094 0,-26.47621 -21.48473,-47.96094 -47.96094,-47.96094 z m 0,1.92188 c 25.43856,0 46.03906,20.6005 46.03906,46.03906 0,25.43856 -20.6005,46.03906 -46.03906,46.03906 -25.43856,0 -46.03906,-20.6005 -46.03906,-46.03906 0,-25.43856 20.6005,-46.03906 46.03906,-46.03906 z"
               id="path21" /><path
               style="baseline-shift:baseline;display:inline;overflow:visible;opacity:1;vector-effect:none;fill:#ffffff;fill-opacity:1;stroke:none;enable-background:accumulate;stop-color:#000000;stop-opacity:1"
               d="m 288,201.03906 c -29.78991,0 -53.96094,24.17103 -53.96094,53.96094 0,29.78991 24.17103,53.96094 53.96094,53.96094 29.78991,0 53.96094,-24.17103 53.96094,-53.96094 0,-29.78991 -24.17103,-53.96094 -53.96094,-53.96094 z m 0,1.92188 c 28.75227,0 52.03906,23.28679 52.03906,52.03906 0,28.75227 -23.28679,52.03906 -52.03906,52.03906 -28.75227,0 -52.03906,-23.28679 -52.03906,-52.03906 0,-28.75227 23.28679,-52.03906 52.03906,-52.03906 z"
               id="path22" /><path
               style="baseline-shift:baseline;display:inline;overflow:visible;opacity:1;vector-effect:none;fill:#ffffff;fill-opacity:1;stroke:none;enable-background:accumulate;stop-color:#000000;stop-opacity:1"
               d="m 288,195.03906 c -33.10362,0 -59.96094,26.85732 -59.96094,59.96094 0,33.10362 26.85732,59.96094 59.96094,59.96094 33.10362,0 59.96094,-26.85732 59.96094,-59.96094 0,-33.10362 -26.85732,-59.96094 -59.96094,-59.96094 z m 0,1.92188 c 32.06598,0 58.03906,25.97308 58.03906,58.03906 0,32.06598 -25.97308,58.03906 -58.03906,58.03906 -32.06598,0 -58.03906,-25.97308 -58.03906,-58.03906 0,-32.06598 25.97308,-58.03906 58.03906,-58.03906 z"
               id="path23" /></g></g><!-- Front sleeve. --><rect
           x="166"
           y="184"
           width="135"
           height="142"
           rx="7"
           fill="url(#sleeveFill)"
           id="rect24"
           style="opacity:1;fill:url(#sleeveFill-6);stroke-width:2.56"
           inkscape:label="sleeve" /><!-- Sleeve cutout. --><g
           id="g25"
           inkscape:label="sleeve sticker"><circle
             cx="234"
             cy="255"
             r="29"
             fill="#f4f4f4"
             id="circle24"
             style="stroke-width:2.56"
             inkscape:label="sleeve sticker 1" /><circle
             cx="234"
             cy="255"
             r="10"
             fill="#b2b2b2"
             id="circle25"
             style="fill:#e0e0e0;fill-opacity:1;stroke-width:2.56"
             inkscape:label="sleeve sticker 2" /></g></g></g></g></svg>
