<?xml version="1.0" encoding="UTF-8" standalone="no"?>
<svg
   width="128"
   height="128"
   viewBox="0 0 128 128"
   version="1.1"
   id="svg37"
   sodipodi:docname="org.11xx.muzaiten.svg"
   xml:space="preserve"
   inkscape:version="1.4.4 (dcaf3e7d9e, 2026-05-05)"
   xmlns:inkscape="http://www.inkscape.org/namespaces/inkscape"
   xmlns:sodipodi="http://sodipodi.sourceforge.net/DTD/sodipodi-0.dtd"
   xmlns="http://www.w3.org/2000/svg"
   xmlns:svg="http://www.w3.org/2000/svg"><sodipodi:namedview
     id="namedview37"
     pagecolor="#ffffff"
     bordercolor="#000000"
     borderopacity="0.25"
     inkscape:showpageshadow="2"
     inkscape:pageopacity="0.0"
     inkscape:pagecheckerboard="0"
     inkscape:deskcolor="#d1d1d1"
     inkscape:zoom="8"
     inkscape:cx="76.8125"
     inkscape:cy="63.9375"
     inkscape:window-width="2084"
     inkscape:window-height="1392"
     inkscape:window-x="0"
     inkscape:window-y="0"
     inkscape:window-maximized="1"
     inkscape:current-layer="svg37" /><title
     id="title1">muzaiten</title><desc
     id="desc1">Benzaiten's biwa with a halo, floating on the sea under a night sky.</desc><defs
     id="defs10"><linearGradient
       id="sky"
       x1="0"
       y1="0"
       x2="0"
       y2="1"><stop
         offset="0"
         stop-color="#3d3779"
         id="stop1" /><stop
         offset="0.55"
         stop-color="#221f51"
         id="stop2" /><stop
         offset="1"
         stop-color="#131135"
         id="stop3" /></linearGradient><linearGradient
       id="lute"
       x1="0.3"
       y1="0"
       x2="0.75"
       y2="1"><stop
         offset="0"
         stop-color="#ffdf7e"
         id="stop4" /><stop
         offset="0.55"
         stop-color="#eeab3f"
         id="stop5" /><stop
         offset="1"
         stop-color="#a96a18"
         id="stop6" /></linearGradient><linearGradient
       id="wood"
       x1="0"
       y1="0"
       x2="0"
       y2="1"><stop
         offset="0"
         stop-color="#7a4a1e"
         id="stop7" /><stop
         offset="1"
         stop-color="#3a1d08"
         id="stop8" /></linearGradient><radialGradient
       id="shine"
       cx="0.35"
       cy="0.22"
       r="0.65"><stop
         offset="0"
         stop-color="#ffffff"
         stop-opacity="0.38"
         id="stop9" /><stop
         offset="1"
         stop-color="#ffffff"
         stop-opacity="0"
         id="stop10" /></radialGradient><clipPath
       id="frame"><rect
         x="4"
         y="4"
         width="120"
         height="120"
         rx="26"
         id="rect10" /></clipPath><linearGradient
       id="linearGradient3383"><stop
         style="stop-color:#ffffff;stop-opacity:0.75294119;"
         offset="0"
         id="stop3385" /><stop
         style="stop-color:#ffffff;stop-opacity:0;"
         offset="1"
         id="stop3387" /></linearGradient><linearGradient
       id="linearGradient3358"><stop
         style="stop-color:#000000;stop-opacity:1;"
         offset="0"
         id="stop3360" /><stop
         style="stop-color:#000000;stop-opacity:0.50196081;"
         offset="1"
         id="stop3362" /></linearGradient><linearGradient
       id="linearGradient3242"><stop
         style="stop-color:#e9ce7d;stop-opacity:1;"
         offset="0"
         id="stop3244" /><stop
         style="stop-color:#fcecb2;stop-opacity:1;"
         offset="1"
         id="stop3246" /></linearGradient><linearGradient
       id="linearGradient3232"><stop
         style="stop-color:#c2aa6d;stop-opacity:1;"
         offset="0"
         id="stop3234" /><stop
         style="stop-color:#ffffff;stop-opacity:1;"
         offset="1"
         id="stop3236" /></linearGradient><inkscape:perspective
       sodipodi:type="inkscape:persp3d"
       inkscape:vp_x="0 : 526.18109 : 1"
       inkscape:vp_y="0 : 1000 : 0"
       inkscape:vp_z="744.09448 : 526.18109 : 1"
       inkscape:persp3d-origin="372.04724 : 350.78739 : 1"
       id="perspective10" /><inkscape:perspective
       id="perspective2390"
       inkscape:persp3d-origin="372.04724 : 350.78739 : 1"
       inkscape:vp_z="744.09448 : 526.18109 : 1"
       inkscape:vp_y="0 : 1000 : 0"
       inkscape:vp_x="0 : 526.18109 : 1"
       sodipodi:type="inkscape:persp3d" /></defs><!-- night sky --><rect
     x="4"
     y="4"
     width="120"
     height="120"
     rx="26"
     fill="url(#sky)"
     id="rect11"
     sodipodi:insensitive="true"
     style="display:inline"
     inkscape:label="frame bg" /><!-- stars --><g
     fill="#cfe0ff"
     id="g14"
     sodipodi:insensitive="true"
     style="display:inline"
     inkscape:label="stars bg"><circle
       cx="14"
       cy="20"
       r="1.2"
       opacity="0.7"
       id="circle11" /><circle
       cx="108"
       cy="20"
       r="1.6"
       opacity="0.9"
       id="circle12" /><circle
       cx="117"
       cy="52"
       r="1.2"
       opacity="0.6"
       id="circle13" /><circle
       cx="18"
       cy="74"
       r="1.3"
       opacity="0.6"
       id="circle14" /></g><path
     d="m 111,69 c 0.6,3 1.8,4.2 4.8,4.8 -3,0.6 -4.2,1.8 -4.8,4.8 -0.6,-3 -1.8,-4.2 -4.8,-4.8 3,-0.6 4.2,-1.8 4.8,-4.8 z"
     fill="#cfe0ff"
     opacity="0.85"
     id="path15"
     sodipodi:insensitive="true"
     inkscape:label="star 2" /><!-- goddess halo / moon behind the biwa --><circle
     cx="56"
     cy="52"
     r="32"
     fill="#45407f"
     opacity="0.5"
     id="circle15"
     sodipodi:insensitive="true"
     inkscape:label="halo" /><circle
     cx="56"
     cy="52"
     r="32"
     fill="none"
     stroke="#ffd98a"
     stroke-width="2"
     opacity="0.35"
     id="circle16"
     sodipodi:insensitive="true"
     style="display:inline"
     inkscape:label="halo border" /><path
     d="m 23,29 c 1,5 3,7 8,8 -5,1 -7,3 -8,8 -1,-5 -3,-7 -8,-8 5,-1 7,-3 8,-8 z"
     fill="#ffe9b0"
     opacity="0.95"
     id="path14"
     sodipodi:insensitive="true"
     inkscape:label="star 1"
     style="display:inline" /><!-- mitsudomoe: Benzaiten's shrine crest (taiko drum mark / water swirl) --><!-- Benzaiten's sea --><g
     clip-path="url(#frame)"
     id="g25"
     sodipodi:insensitive="true"
     style="display:inline"
     inkscape:label="water"><path
       d="m 4,101 c 20,-9 36,9 60,1 24,-8 40,10 60,-2 v 24 H 4 Z"
       fill="#24406e"
       id="path19" /><path
       d="m 4,101 c 20,-9 36,9 60,1 24,-8 40,10 60,-2"
       fill="none"
       stroke="#5d86b8"
       stroke-width="2.5"
       stroke-linecap="round"
       opacity="0.6"
       id="path20" /><path
       d="m 4,112 c 24,-12 44,6 68,-2 22,-7 38,8 52,0 v 14 H 4 Z"
       fill="#2f6f9e"
       id="path21" /><path
       d="m 4,112 c 24,-12 44,6 68,-2 22,-7 38,8 52,0"
       fill="none"
       stroke="#b9e7f7"
       stroke-width="3"
       stroke-linecap="round"
       id="path22" /><g
       fill="#b9e7f7"
       opacity="0.8"
       id="g24"><circle
         cx="22"
         cy="104"
         r="1.8"
         id="circle22" /><circle
         cx="80"
         cy="103"
         r="1.5"
         id="circle23" /><circle
         cx="104"
         cy="107"
         r="1.8"
         id="circle24" /></g><ellipse
       cx="70"
       cy="115"
       rx="27"
       ry="5.5"
       fill="#0d1530"
       opacity="0.35"
       id="ellipse24" /></g><!-- the biwa --><g
     transform="rotate(-12,64,78)"
     stroke-linejoin="round"
     id="g37"
     sodipodi:insensitive="true"
     style="display:inline"
     inkscape:label="biwa"><!-- neck --><rect
       x="58.5"
       y="22"
       width="11"
       height="32"
       rx="2.5"
       fill="url(#wood)"
       stroke="#191033"
       stroke-width="3"
       id="rect25" /><!-- bent-back pegbox, 4 staggered lateral pegs (2 per side) --><g
       transform="rotate(-58,54.550597,-45.229528)"
       id="g30"><g
         fill="#a9712a"
         stroke="#191033"
         stroke-width="2.5"
         id="g29"><rect
           x="-13"
           y="-23"
           width="10"
           height="4.4000001"
           rx="2.2"
           id="rect26" /><rect
           x="-13"
           y="-12.5"
           width="10"
           height="4.4000001"
           rx="2.2"
           id="rect27" /><rect
           x="3"
           y="-18"
           width="10"
           height="4.4000001"
           rx="2.2"
           id="rect28" /><rect
           x="3"
           y="-7.5"
           width="10"
           height="4.4000001"
           rx="2.2"
           id="rect29" /></g><rect
         x="-5.5"
         y="-28"
         width="11"
         height="30"
         rx="4"
         fill="url(#wood)"
         stroke="#191033"
         stroke-width="3"
         id="rect30" /></g><!-- body --><path
       d="m 64,46 c 18,4 31,22 31,42 0,19 -13,31 -31,31 C 46,119 33,107 33,88 33,68 46,50 64,46 Z"
       fill="url(#lute)"
       stroke="#191033"
       stroke-width="3"
       id="path30" /><path
       d="m 64,46 c 18,4 31,22 31,42 0,19 -13,31 -31,31 C 46,119 33,107 33,88 33,68 46,50 64,46 Z"
       fill="url(#shine)"
       id="path31" /><!-- nut + frets --><rect
       x="58.5"
       y="26.5"
       width="11"
       height="2.5999999"
       rx="1.3"
       fill="#f0e0b8"
       id="rect31" /><g
       fill="#b07a38"
       id="g33"><rect
         x="58.5"
         y="36"
         width="11"
         height="2.2"
         rx="1.1"
         id="rect32" /><rect
         x="58.5"
         y="44"
         width="11"
         height="2.2"
         rx="1.1"
         id="rect33" /></g><!-- crescent moon sound hole --><path
       transform="rotate(-30,50,76)"
       d="m 50,69 a 7,7 0 1 0 0,14 8.75,8.75 0 0 1 0,-14 z"
       fill="#191033"
       id="path33" /><!-- 4 strings --><g
       stroke="#fff3d0"
       stroke-width="1.5"
       stroke-linecap="round"
       opacity="0.95"
       id="g36"><line
         x1="60.200001"
         y1="29"
         x2="59.5"
         y2="105"
         id="line33" /><line
         x1="62.799999"
         y1="29"
         x2="62.5"
         y2="105"
         id="line34" /><line
         x1="65.400002"
         y1="29"
         x2="65.5"
         y2="105"
         id="line35" /><line
         x1="68"
         y1="29"
         x2="68.5"
         y2="105"
         id="line36" /></g><!-- tailpiece --><rect
       x="57"
       y="103"
       width="14"
       height="8.5"
       rx="2.5"
       fill="#e0492c"
       stroke="#191033"
       stroke-width="2.5"
       id="rect36" /></g><!-- subtle inner rim --><rect
     x="5.25"
     y="5.25"
     width="117.5"
     height="117.5"
     rx="24.75"
     fill="none"
     stroke="#ffffff"
     stroke-width="2.5"
     opacity="0.07"
     id="rect37"
     sodipodi:insensitive="true"
     style="display:inline"
     inkscape:label="frame border" /><path
     id="path50"
     style="display:inline;fill:#ffe9b0;fill-opacity:1;stroke:#ffe9b0;stroke-width:0;stroke-linecap:square;stroke-dasharray:none;stroke-opacity:1"
     d="m 105.05939,26.587417 c -0.26995,-0.02394 -1.29968,-0.01238 -1.61317,0.01809 -0.77069,0.07402 -1.69778,0.271103 -2.2268,0.477924 -0.10232,0.03919 -0.24225,0.08896 -0.30756,0.10855 -0.28302,0.08708 -0.944574,0.39859 -1.334267,0.627181 -2.418128,1.426592 -2.466872,4.531967 -0.681456,6.235623 2.206873,2.123066 6.360763,1.060424 6.517553,-3.04846 1.12927,-0.658142 2.40211,-0.788172 3.68167,-0.69804 1.94257,0.263035 3.34679,1.375759 4.3978,2.968554 0,0 -0.13622,-0.447352 -0.24725,-0.728192 -0.1328,-0.330913 -0.45805,-0.967508 -0.66487,-1.307129 -0.43541,-0.711897 -0.78734,-1.164749 -1.3599,-1.750376 -0.94702,-0.96879 -2.06064,-1.723218 -3.25802,-2.208701 -0.84034,-0.341799 -1.98936,-0.616651 -2.90373,-0.695024 z m -7.434199,2.716778 c -1.993462,1.941909 -2.606051,4.285088 -2.790652,5.682316 -0.0653,0.505077 -0.07304,1.75974 -0.01207,2.253931 0.280838,2.253253 1.223841,4.196751 2.789145,5.757699 1.053694,1.049341 2.187872,1.762833 3.128366,1.967478 2.658,0.573399 4.89494,-1.714088 4.5938,-4.192763 -0.40699,-3.279304 -4.00723,-4.242408 -6.039633,-2.879604 -1.901028,-1.04735 -4.327478,-4.5704 -1.668965,-8.589057 z M 109.9502,32.31044 c -0.20573,0.0054 -0.40995,0.01852 -0.52316,0.0392 -3.73191,0.680589 -4.28,5.498408 -1.02369,7.330173 -0.41743,5.016182 -4.3835,5.781516 -6.39242,5.843635 0.78841,0.206942 1.59455,0.273005 2.40621,0.295498 0.56386,0 0.86503,-0.01861 1.3614,-0.09046 2.68213,-0.383161 5.06966,-1.883553 6.55223,-4.112858 0.97314,-1.465158 1.504,-3.037261 1.62374,-4.78979 0.21772,-3.203439 -2.16741,-4.343893 -3.47362,-4.503338 -0.11756,-0.01415 -0.32496,-0.0175 -0.53069,-0.01206 z"
     sodipodi:nodetypes="ccccccccccccccccccccccsccccccccs"
     inkscape:label="mitsudomoe" /></svg>
